<svg xmlns="http://www.w3.org/2000/svg" viewBox="0 0 16 14.61"><defs><style>.cls-1{fill:#949ea9;}.cls-2{fill:#319583;}</style></defs><g id="Layer_2" data-name="Layer 2"><g id="mlcan_admin" data-name="mlcan admin"><g id="add_photo" data-name="add photo"><path id="ic_add_a_photo_24px" data-name="ic add a photo 24px" class="cls-1" d="M4.17,6.26V4.17H6.26V2.09h4.87L12.4,3.48h2.2A1.4,1.4,0,0,1,16,4.87v8.35a1.4,1.4,0,0,1-1.39,1.39H3.48a1.4,1.4,0,0,1-1.39-1.39v-7ZM9,12.52A3.48,3.48,0,1,0,5.57,9h0A3.47,3.47,0,0,0,9,12.52ZM6.82,9A2.23,2.23,0,1,0,9,6.82,2.22,2.22,0,0,0,6.82,9Z"/><path id="ic_add_a_photo_24px-2" data-name="ic add a photo 24px-2" class="cls-2" d="M2.09,2.09V0H3.48V2.09H5.57V3.48H3.48V5.57H2.09V3.48H0V2.09Z"/></g></g></g></svg>