<svg xmlns="http://www.w3.org/2000/svg" viewBox="0 0 16.1 14.08"><defs><style>.cls-1{fill:#feecd1;}.cls-2{fill:#f99f1c;}</style></defs><g id="Layer_2" data-name="Layer 2"><g id="mlcan_admin" data-name="mlcan admin"><g id="alert"><path id="Path_62501" data-name="Path 62501" class="cls-1" d="M6.82,1.19.69,11.41a1.46,1.46,0,0,0,.53,2,1.48,1.48,0,0,0,.71.19H14.17a1.44,1.44,0,0,0,1.43-1.46,1.48,1.48,0,0,0-.19-.71L9.29,1.19a1.45,1.45,0,0,0-2-.48A1.47,1.47,0,0,0,6.82,1.19Z"/><path class="cls-2" d="M1.93,14.08A1.93,1.93,0,0,1,.07,12.64a1.92,1.92,0,0,1,.19-1.48L6.39.94h0A2,2,0,0,1,7,.28,1.94,1.94,0,0,1,9.71.93l6.13,10.23a1.89,1.89,0,0,1,.26,1,1.94,1.94,0,0,1-1.92,2ZM7.24,1.45,1.12,11.67a1,1,0,0,0-.09.71.94.94,0,0,0,.44.57.85.85,0,0,0,.47.13H14.17A1,1,0,0,0,15,11.66L8.86,1.45a1,1,0,0,0-1.3-.31A.86.86,0,0,0,7.24,1.45Z"/><path class="cls-2" d="M8.05,9.68a.5.5,0,0,1-.5-.5V4.91a.5.5,0,0,1,1,0V9.18A.5.5,0,0,1,8.05,9.68Z"/><path class="cls-2" d="M8.06,11.19a.5.5,0,0,1-.51-.5.5.5,0,0,1,.5-.5h0a.5.5,0,0,1,0,1Z"/></g></g></g></svg>