<svg xmlns="http://www.w3.org/2000/svg" viewBox="0 0 32 32"><defs><style>.cls-1{fill:#e9edf0;}.cls-2{fill:#949ea9;}</style></defs><g id="Layer_2" data-name="Layer 2"><g id="mlcan_admin" data-name="mlcan admin"><g id="next"><path id="Path_62477-2" data-name="Path 62477-2" class="cls-1" d="M16,32A16,16,0,1,0,0,16,16,16,0,0,0,16,32Z"/><path class="cls-2" d="M13.4,22.82a1,1,0,0,1-.71-.29,1,1,0,0,1,0-1.41l5.17-5.21L12.69,10.7a1,1,0,1,1,1.42-1.41L20,15.2a1,1,0,0,1,0,1.41l-5.87,5.92A1,1,0,0,1,13.4,22.82Z"/></g></g></g></svg>