<svg xmlns="http://www.w3.org/2000/svg" viewBox="0 0 32 32"><defs><style>.cls-1{fill:#43495c;}.cls-2{fill:#fff;}</style></defs><g id="Layer_2" data-name="Layer 2"><g id="mlcan_admin" data-name="mlcan admin"><g id="previous_blac" data-name="previous blac"><path id="Path_62477" data-name="Path 62477" class="cls-1" d="M16,32A16,16,0,1,1,32,16,16,16,0,0,1,16,32Z"/><path class="cls-2" d="M18.6,22.82a1,1,0,0,1-.71-.29L12,16.61a1,1,0,0,1,0-1.41l5.87-5.91a1,1,0,1,1,1.42,1.41l-5.17,5.21,5.17,5.21a1,1,0,0,1,0,1.41A1,1,0,0,1,18.6,22.82Z"/></g></g></g></svg>