<svg xmlns="http://www.w3.org/2000/svg" viewBox="0 0 551.18 207.63"><defs><style>.cls-1{fill:#ffffff;}</style></defs><g id="Layer_2" data-name="Layer 2"><g id="Layer_2-2" data-name="Layer 2"><path id="MLCAN_logo" data-name="MLCAN logo" class="cls-1" d="M376.25,176.26V134.32h8.48l19.67,25.84V134.32h9.1v41.94h-7.83l-20.32-26.67v26.67Zm-10.54-41.94h-9.26v41.94h9.26Zm89.79,33.79H432.74v-8.82h19.78V151H432.74v-8.49h22.48v-8.21H423.53v42h32Zm66.69.62a19.14,19.14,0,0,1-12.51-5.07l-5.46,6.54A25.7,25.7,0,0,0,522,176.77c9.1,0,15.43-4.68,15.43-13v-.11c0-7.28-4.79-10.37-13.28-12.57-7.22-1.87-9-2.76-9-5.51v-.11c0-2,1.88-3.64,5.4-3.64A19.59,19.59,0,0,1,531.4,146l4.79-6.94a24.28,24.28,0,0,0-15.6-5.35c-8.54,0-14.66,5.07-14.66,12.68v.11c0,8.32,5.46,10.69,13.89,12.84,7,1.82,8.44,3,8.44,5.35v.11C528.26,167.24,526,168.73,522.19,168.73Zm-49.27,7.53h-9.26V134.32h19.23a16.7,16.7,0,0,1,12.24,4.24,13.22,13.22,0,0,1,3.58,9.59v.11a13,13,0,0,1-9,13l10.25,15h-10.8l-9-13.43h-7.27Zm0-21.56h9.38c4.52,0,7.06-2.41,7.06-6v-.11c0-4-2.76-6-7.28-6H473ZM141.13,90.5l11.8,17.69h.22l11.79-17.91v27.39h9.15V75.73h-10l-11,17.75-11-17.75h-10v42h9.06ZM305,176.32,323.11,134h8.48l18,42.28h-9.64l-3.86-9.43H318.31l-3.86,9.43Zm16.59-17.58h11.19l-5.57-13.62Zm-147.16-2.48c0-.28,0-.56,0-.83v-.12a21.75,21.75,0,0,1,21.77-21.72h.62a21.53,21.53,0,0,1,22.26,20.77c0,.28,0,.56,0,.84v.11A21.73,21.73,0,0,1,197.34,177h-.62A21.53,21.53,0,0,1,174.46,156.26Zm9.61-1.63c0,.19,0,.38,0,.57v.11a12.75,12.75,0,0,0,12.32,13.16h.43A12.51,12.51,0,0,0,209.41,156c0-.2,0-.41,0-.61v-.12a12.76,12.76,0,0,0-12.31-13.17h-.44A12.55,12.55,0,0,0,184.07,154.63ZM96.35,202v-138L0,0V143.58l96.35,64H551.18V202Zm55.34-25a21.35,21.35,0,0,0,17.2-7.5l-5.9-5.95a15.21,15.21,0,0,1-11,4.91l-.52,0a12.44,12.44,0,0,1-11.66-13.16v-.11c0-.11,0-.21,0-.32A12.47,12.47,0,0,1,152,142.09a15.6,15.6,0,0,1,10.75,4.74l5.9-6.78a21.69,21.69,0,0,0-16.54-6.45h-.87a21.36,21.36,0,0,0-21,21.71v.93A21.12,21.12,0,0,0,151.69,177Zm131.47-.66h9.26V142.86h12.79v-8.49h-34.8v8.49h12.75Zm-48-26.73,20.32,26.67h7.83V134.32h-9.1v25.84l-19.67-25.84H226.1v41.94h9.11Z"/></g></g></svg>