<svg xmlns="http://www.w3.org/2000/svg" viewBox="0 0 18.86 24"><defs><style>.cls-1{fill:#039b8a;}.cls-2{fill:#048979;}</style></defs><g id="Layer_2" data-name="Layer 2"><g id="mlcan_admin" data-name="mlcan admin"><g id="csv_preview" data-name="csv preview"><path id="Path_62518" data-name="Path 62518" class="cls-1" d="M18.64,10.29h-7.5A2.58,2.58,0,0,1,8.57,7.72V.22A.21.21,0,0,0,8.36,0H3.43A3.44,3.44,0,0,0,0,3.43H0V20.57A3.44,3.44,0,0,0,3.43,24h12a3.44,3.44,0,0,0,3.43-3.43h0V10.5a.21.21,0,0,0-.22-.21Z"/><path id="Path_62519" data-name="Path 62519" class="cls-2" d="M18.17,8.39,10.47.69a.11.11,0,0,0-.15,0,.11.11,0,0,0,0,.08v7a.86.86,0,0,0,.86.86h7a.11.11,0,0,0,.11-.11.11.11,0,0,0,0-.08Z"/></g></g></g></svg>