<svg xmlns="http://www.w3.org/2000/svg" viewBox="0 0 12 12"><defs><style>.cls-1{fill:#7b858e;}</style></defs><g id="Layer_2" data-name="Layer 2"><g id="mlcan_admin" data-name="mlcan admin"><path id="calendar" class="cls-1" d="M10.29.86H9.86V.44A.45.45,0,0,0,9.45,0,.43.43,0,0,0,9,.41V.86H3V.44A.45.45,0,0,0,2.59,0a.43.43,0,0,0-.45.41V.86H1.71A1.71,1.71,0,0,0,0,2.57v7.72A1.72,1.72,0,0,0,1.71,12h8.57A1.72,1.72,0,0,0,12,10.29h0V2.57A1.71,1.71,0,0,0,10.29.86Zm-7.5,9.43a.65.65,0,1,1,.64-.65.65.65,0,0,1-.64.65Zm0-2.15a.64.64,0,1,1,.64-.64.64.64,0,0,1-.64.64Zm2.14,2.15a.65.65,0,1,1,.64-.65.64.64,0,0,1-.64.65Zm0-2.15a.64.64,0,0,1,0-1.28.64.64,0,0,1,.64.64.64.64,0,0,1-.64.64Zm2.14,2.15a.65.65,0,1,1,.65-.65.66.66,0,0,1-.65.65Zm0-2.15a.64.64,0,0,1-.64-.64.65.65,0,1,1,.64.64ZM7.07,6a.65.65,0,1,1,.65-.64A.65.65,0,0,1,7.07,6ZM9.22,8.14a.64.64,0,1,1,.64-.64.64.64,0,0,1-.64.64h0ZM9.22,6a.65.65,0,1,1,.64-.64A.65.65,0,0,1,9.22,6Zm1.92-3.21v.43a.21.21,0,0,1-.21.21H1.07a.21.21,0,0,1-.21-.21h0V2.57a.85.85,0,0,1,.85-.85h8.57a.85.85,0,0,1,.86.85Z"/></g></g></svg>