<svg xmlns="http://www.w3.org/2000/svg" viewBox="0 0 16 13.72"><defs><style>.cls-1{fill:#7b858e;}</style></defs><g id="Layer_2" data-name="Layer 2"><g id="mlcan_admin" data-name="mlcan admin"><path id="container" class="cls-1" d="M2.29,13.72A2.29,2.29,0,0,1,0,11.43v-4a.49.49,0,0,1,0-.12L1.15,1.89A2.36,2.36,0,0,1,1.92.5,2.34,2.34,0,0,1,3.42,0h9.15a2.19,2.19,0,0,1,2.27,1.89L16,7.31a.5.5,0,0,1,0,.12v4a2.29,2.29,0,0,1-2.29,2.29H2.29ZM14.55,6.86a.14.14,0,0,0,.14-.14v0l-1-4.57s0,0,0,0a1.05,1.05,0,0,0-1.12-1H3.43a1,1,0,0,0-1.15.93v0h0l-1,4.57a.14.14,0,0,0,.11.17H14.55ZM3.43,5.72a.58.58,0,0,1,0-1.15h9.14a.58.58,0,0,1,0,1.15H3.43ZM4,3.43A.57.57,0,0,1,4,2.29h8a.57.57,0,1,1,0,1.14Z"/></g></g></svg>