<svg xmlns="http://www.w3.org/2000/svg" viewBox="0 0 16 16"><defs><style>.cls-1{fill:#7b858e;}</style></defs><g id="Layer_2" data-name="Layer 2"><g id="mlcan_admin" data-name="mlcan admin"><path id="customer" class="cls-1" d="M8,0a8,8,0,1,0,8,8A8,8,0,0,0,8,0ZM6.07,4.49a2.72,2.72,0,0,1,3.84,0h0a2.63,2.63,0,0,1,.68,2,2.61,2.61,0,0,1-5.22.27V6.49A2.63,2.63,0,0,1,6.07,4.49ZM8,14.77a6.77,6.77,0,0,1-4.85-2,4.62,4.62,0,0,1,1.36-1.28,6.73,6.73,0,0,1,7,0,4.62,4.62,0,0,1,1.36,1.28A6.77,6.77,0,0,1,8,14.77Z"/></g></g></svg>