<svg xmlns="http://www.w3.org/2000/svg" viewBox="0 0 16 16"><defs><style>.cls-1{fill:#7b858e;}</style></defs><g id="Layer_2" data-name="Layer 2"><g id="mlcan_admin" data-name="mlcan admin"><path id="dashboard" class="cls-1" d="M6.14,7.43H1.29A1.29,1.29,0,0,1,0,6.14V1.29A1.29,1.29,0,0,1,1.29,0H6.14A1.29,1.29,0,0,1,7.43,1.29V6.14A1.29,1.29,0,0,1,6.14,7.43Zm8.57,0H9.86A1.29,1.29,0,0,1,8.57,6.14h0V1.29A1.29,1.29,0,0,1,9.86,0h4.85A1.29,1.29,0,0,1,16,1.29h0V6.14a1.29,1.29,0,0,1-1.29,1.29ZM6.14,16H1.29A1.29,1.29,0,0,1,0,14.71V9.86A1.29,1.29,0,0,1,1.29,8.57H6.14A1.29,1.29,0,0,1,7.43,9.86h0v4.85A1.29,1.29,0,0,1,6.14,16Zm8.57,0H9.86a1.29,1.29,0,0,1-1.29-1.29V9.86A1.29,1.29,0,0,1,9.86,8.57h4.85A1.29,1.29,0,0,1,16,9.86h0v4.85A1.29,1.29,0,0,1,14.71,16Z"/></g></g></svg>