<svg xmlns="http://www.w3.org/2000/svg" viewBox="0 0 17.5 17.5"><defs><style>.cls-1{fill:#7b858e;}</style></defs><g id="Layer_2" data-name="Layer 2"><g id="mlcan_admin" data-name="mlcan admin"><path id="export" class="cls-1" d="M12.62,8.5a.75.75,0,0,1,0,1.06L9.28,12.87a.77.77,0,0,1-1.06,0L4.89,9.56a.75.75,0,0,1,0-1.06A.76.76,0,0,1,6,8.49l2.05,2V5.17a.75.75,0,0,1,1.5,0v5.36l2.06-2A.75.75,0,0,1,12.62,8.5Zm4.88.25A8.75,8.75,0,1,1,8.75,0,8.77,8.77,0,0,1,17.5,8.75Zm-1.5,0A7.25,7.25,0,1,0,8.75,16,7.26,7.26,0,0,0,16,8.75Z"/></g></g></svg>