<svg xmlns="http://www.w3.org/2000/svg" viewBox="0 0 18 15.43"><defs><style>.cls-1{fill:#7b858e;}</style></defs><g id="Layer_2" data-name="Layer 2"><g id="mlcan_admin" data-name="mlcan admin"><path id="image" class="cls-1" d="M15.43,0H2.57A2.57,2.57,0,0,0,0,2.57V12.86a2.57,2.57,0,0,0,2.57,2.57H15.43A2.57,2.57,0,0,0,18,12.86V2.57A2.57,2.57,0,0,0,15.43,0ZM12.22,2.57A1.93,1.93,0,1,1,10.29,4.5a1.92,1.92,0,0,1,1.93-1.93ZM2.57,14.14a1.28,1.28,0,0,1-1.29-1.28h0V10.14L5.1,6.75a1.93,1.93,0,0,1,2.64.08l2.61,2.6L5.64,14.14Zm14.14-1.28a1.28,1.28,0,0,1-1.28,1.28h-8l4.88-4.88a1.92,1.92,0,0,1,2.47,0l1.9,1.58Z"/></g></g></svg>