<svg xmlns="http://www.w3.org/2000/svg" viewBox="0 0 18.01 18"><defs><style>.cls-1{fill:#7b858e;}</style></defs><g id="Layer_2" data-name="Layer 2"><g id="mlcan_admin" data-name="mlcan admin"><path id="inspection" class="cls-1" d="M18,3.19a.65.65,0,0,0-.53-.6,27.88,27.88,0,0,1-8-2.5.93.93,0,0,0-.8,0,28,28,0,0,1-8,2.5.64.64,0,0,0-.52.6A15.76,15.76,0,0,0,1,10,14.15,14.15,0,0,0,3.89,14.5,15,15,0,0,0,8.7,17.94a.81.81,0,0,0,.61,0,14.68,14.68,0,0,0,4.81-3.44A14.26,14.26,0,0,0,17,10,15.92,15.92,0,0,0,18,3.19Z"/></g></g></svg>