<svg xmlns="http://www.w3.org/2000/svg" viewBox="0 0 16.02 14.95"><defs><style>.cls-1{fill:#7b858e;}</style></defs><g id="Layer_2" data-name="Layer 2"><g id="mlcan_admin" data-name="mlcan admin"><path id="invoice" class="cls-1" d="M15.62,0a.58.58,0,0,0-.37,0l-.82.41h0L13.6.06a.51.51,0,0,0-.48,0l-.84.41h0L11.46.06a.51.51,0,0,0-.48,0l-.82.41h0L9.34.06a.49.49,0,0,0-.47,0L8,.47H8L7.2.06a.51.51,0,0,0-.48,0L5.89.47h0L5.06.06a.52.52,0,0,0-.64.13.58.58,0,0,0-.13.35v8h6.4A1.06,1.06,0,0,1,11.76,9.6h0v3.47a2.11,2.11,0,0,0,2.13,1.86h.4A1.72,1.72,0,0,0,16,13.2h0V.53A.52.52,0,0,0,15.62,0ZM13.36,6.93H9.11a.54.54,0,0,1-.55-.51.53.53,0,0,1,.51-.55h4.27a.54.54,0,0,1,.55.51.52.52,0,0,1-.51.55Zm0-2.66H7a.55.55,0,0,1-.55-.51.52.52,0,0,1,.51-.56h6.4a.55.55,0,0,1,.55.51.54.54,0,0,1-.51.56Zm-2.67,8.8V10.13a.53.53,0,0,0-.53-.53H1.09A1.06,1.06,0,0,0,0,10.67a5.75,5.75,0,0,0,.48,2.92,2.78,2.78,0,0,0,2.72,1.34h8.18a.13.13,0,0,0,.14-.13.15.15,0,0,0,0-.09A2.12,2.12,0,0,1,10.69,13.07Z"/></g></g></svg>