<svg xmlns="http://www.w3.org/2000/svg" width="45.451" height="60" viewBox="0 0 45.451 60">
  <g id="lock_1_" data-name="lock (1)" transform="translate(-62.077)">
    <path id="Path_62489" data-name="Path 62489" d="M108.316,274.3V258.736h5.111v-4.154H76.459V277.5a5.561,5.561,0,0,0,5.561,5.561h25.846a5.561,5.561,0,0,0,5.561-5.561v-3.2h-5.112Zm-13.373-3.2a4.326,4.326,0,1,1,4.326-4.326A4.326,4.326,0,0,1,94.943,271.1Z" transform="translate(-12.697 -224.748)" fill="#c9ced4"/>
    <g id="Group_44424" data-name="Group 44424" transform="translate(62.077)">
      <path id="Path_62490" data-name="Path 62490" d="M105.842,244.354h-3.426v-2.469a1.685,1.685,0,0,0-1.685-1.685H63.762a1.685,1.685,0,0,0-1.685,1.685V264.8a7.255,7.255,0,0,0,7.247,7.247H95.17a7.255,7.255,0,0,0,7.247-7.247v-3.2a1.685,1.685,0,0,0-1.685-1.685H97.305v-4.41h6.852v2.926a1.685,1.685,0,1,0,3.371,0V246.039A1.685,1.685,0,0,0,105.842,244.354Zm-6.8,18.932V264.8a3.88,3.88,0,0,1-3.876,3.876H69.324a3.88,3.88,0,0,1-3.876-3.876V243.571h33.6v.783H95.62a1.685,1.685,0,0,0-1.685,1.685V261.6a1.685,1.685,0,0,0,1.685,1.685h3.426ZM97.3,252.135v-4.41h6.852v4.41Z" transform="translate(-62.077 -212.052)" fill="#949ea9"/>
      <path id="Path_62491" data-name="Path 62491" d="M188.9,307.309a6.011,6.011,0,0,0-1.686,11.781v2.827a1.685,1.685,0,0,0,3.371,0V319.09a6.011,6.011,0,0,0-1.685-11.781Zm0,8.652a2.641,2.641,0,1,1,2.641-2.641A2.644,2.644,0,0,1,188.9,315.961Z" transform="translate(-168.735 -271.296)" fill="#949ea9"/>
      <path id="Path_62492" data-name="Path 62492" d="M144.414,24.947a1.685,1.685,0,0,1-1.685-1.685V13.484a10.113,10.113,0,0,0-20.225,0v9.778a1.685,1.685,0,1,1-3.371,0V13.484a13.484,13.484,0,1,1,26.967,0v9.778A1.685,1.685,0,0,1,144.414,24.947Z" transform="translate(-112.446)" fill="#949ea9"/>
    </g>
  </g>
</svg>
