<svg xmlns="http://www.w3.org/2000/svg" viewBox="0 0 13.99 11.85"><defs><style>.cls-1{fill:#7b858e;}</style></defs><g id="Layer_2" data-name="Layer 2"><g id="mlcan_admin" data-name="mlcan admin"><path id="logout" class="cls-1" d="M4.31,6.46H9.15V10a1.89,1.89,0,0,1-1.88,1.89H1.89A1.89,1.89,0,0,1,0,10V1.89A1.88,1.88,0,0,1,1.89,0H7A2.11,2.11,0,0,1,9.15,1.89v3.5H4.31a.54.54,0,0,0-.54.53h0A.54.54,0,0,0,4.31,6.46Zm9.53-.92L11.15,2.85a.54.54,0,1,0-.76.76l1.78,1.77h-3V6.46h3L10.39,8.23a.55.55,0,0,0,0,.77.54.54,0,0,0,.76,0l2.69-2.7A.55.55,0,0,0,13.84,5.54Z"/></g></g></svg>