<svg xmlns="http://www.w3.org/2000/svg" viewBox="0 0 14.86 16"><defs><style>.cls-1{fill:#7b858e;}</style></defs><g id="Layer_2" data-name="Layer 2"><g id="mlcan_admin" data-name="mlcan admin"><path id="my_profile" data-name="my profile" class="cls-1" d="M10.17,1.16a3.83,3.83,0,0,0-5.4-.09l-.08.09A3.76,3.76,0,0,0,3.73,4a3.71,3.71,0,1,0,7.4.5,4.17,4.17,0,0,0,0-.5A3.77,3.77,0,0,0,10.17,1.16ZM13.72,16H1.14a1.1,1.1,0,0,1-.86-.4,1.26,1.26,0,0,1-.26-1A6.11,6.11,0,0,1,2.75,10.5a8.76,8.76,0,0,1,9.37,0,6.11,6.11,0,0,1,2.72,4.06,1.26,1.26,0,0,1-.26,1A1.1,1.1,0,0,1,13.72,16Z"/></g></g></svg>