<svg xmlns="http://www.w3.org/2000/svg" viewBox="0 0 20 20"><defs><style>.cls-1{fill:#7b858e;}</style></defs><g id="Layer_2" data-name="Layer 2"><g id="mlcan_admin" data-name="mlcan admin"><path id="print" class="cls-1" d="M17.31,3.08H2.79A2.79,2.79,0,0,0,0,5.87H0v7.6a2.7,2.7,0,0,0,2.69,2.69h.39v1.9A1.93,1.93,0,0,0,5,20H15a1.94,1.94,0,0,0,1.94-1.94h0v-1.9h.39A2.7,2.7,0,0,0,20,13.47h0V5.77a2.68,2.68,0,0,0-2.69-2.69Zm-1.93,15a.39.39,0,0,1-.39.4H5a.4.4,0,0,1-.4-.4h0V10.4A.4.4,0,0,1,5,10H15a.4.4,0,0,1,.4.4h0ZM16.63,7.69a1.15,1.15,0,1,1,1.06-1.24.54.54,0,0,1,0,.18A1.15,1.15,0,0,1,16.63,7.69ZM14.23,0H5.77A2.69,2.69,0,0,0,3.11,2.31H16.9A2.71,2.71,0,0,0,14.23,0Z"/></g></g></svg>