<svg xmlns="http://www.w3.org/2000/svg" viewBox="0 0 13.5 8.89"><defs><style>.cls-1{fill:#7b858e;}</style></defs><g id="Layer_2" data-name="Layer 2"><g id="mlcan_admin" data-name="mlcan admin"><path id="quote_approved" data-name="quote approved" class="cls-1" d="M13.31,1.24,6.85,8.63a.74.74,0,0,1-.54.26h0a.75.75,0,0,1-.53-.22L3,5.9A.75.75,0,0,1,3,4.84a.74.74,0,0,1,1.06,0L6.25,7,12.19.26A.74.74,0,0,1,13.24.19.73.73,0,0,1,13.31,1.24Zm-12,3.6a.74.74,0,0,0-1.06,0,.75.75,0,0,0,0,1.06L3,8.66a.75.75,0,0,0,1.06,0,.75.75,0,0,0,0-1.06ZM6.06,6a.73.73,0,0,0,.56-.26l3.93-4.5a.75.75,0,1,0-1.13-1L5.49,4.76A.75.75,0,0,0,6.06,6Z"/></g></g></svg>