<svg xmlns="http://www.w3.org/2000/svg" viewBox="0 0 14.14 18"><defs><style>.cls-1{fill:#7b858e;}</style></defs><g id="Layer_2" data-name="Layer 2"><g id="mlcan_admin" data-name="mlcan admin"><g id="quote"><path class="cls-1" d="M8.36,6.43h5.21a.09.09,0,0,0,.06-.14h0L7.85.51a.08.08,0,0,0-.11,0,.09.09,0,0,0,0,.06V5.79A.65.65,0,0,0,8.36,6.43Z"/><path class="cls-1" d="M14,7.71H8.36A1.92,1.92,0,0,1,6.43,5.79V.16A.16.16,0,0,0,6.27,0H2.57A2.57,2.57,0,0,0,0,2.57V15.43A2.57,2.57,0,0,0,2.57,18h9a2.57,2.57,0,0,0,2.57-2.57V7.88A.17.17,0,0,0,14,7.71Zm-3.69,6.43H3.86a.64.64,0,1,1,0-1.28h6.43a.64.64,0,0,1,.64.64A.64.64,0,0,1,10.29,14.14Zm0-3.21H3.86a.65.65,0,0,1-.65-.64.66.66,0,0,1,.65-.65h6.43a.65.65,0,0,1,0,1.29Z"/></g></g></g></svg>