<svg xmlns="http://www.w3.org/2000/svg" viewBox="0 0 16 13.05"><defs><style>.cls-1{fill:#7b858e;}</style></defs><g id="Layer_2" data-name="Layer 2"><g id="mlcan_admin" data-name="mlcan admin"><path id="repair_list" data-name="repair list" class="cls-1" d="M15.94,4.38A3.47,3.47,0,0,1,15,6.24a3.54,3.54,0,0,1-3.51.69.37.37,0,0,0-.35.1L6.09,12.44a1.37,1.37,0,0,1-.17.17A1.77,1.77,0,1,1,3.59,9.94l5.4-5a.35.35,0,0,0,.1-.35A3.33,3.33,0,0,1,13.53.29a.57.57,0,0,1,.16.11.53.53,0,0,1,0,.75L12.1,2.74a.36.36,0,0,0,0,.49l.7.7a.36.36,0,0,0,.49,0l1.6-1.6a.45.45,0,0,1,.14-.1.53.53,0,0,1,.71.24A3.2,3.2,0,0,1,15.94,4.38Zm-2.28,6h0c-.44-.36-1.37-1.2-2.32-2.07L9.29,10.49c.88.94,1.68,1.81,2,2.22A1,1,0,0,0,12,13h0a1,1,0,0,0,.66-.27l1.05-1a.92.92,0,0,0,0-1.3ZM3.71,5.22a.67.67,0,0,0-.1-.33.1.1,0,0,1,0-.12,0,0,0,0,1,0,0,1,1,0,0,1,.37.14A7.63,7.63,0,0,1,5.36,6a1,1,0,0,0,.23.69L7.66,4.78A1.1,1.1,0,0,0,7,4.49H7l0,0L6.19,3.4a.87.87,0,0,1-.13-.81,1.06,1.06,0,0,1,.37-.51,2,2,0,0,1,.92-.34,1.83,1.83,0,0,1,.47,0l.23.07.06,0a.5.5,0,0,0,.6-.38.48.48,0,0,0-.09-.4A.66.66,0,0,0,8.53,1a2.27,2.27,0,0,0-.3-.32A2.79,2.79,0,0,0,6.46,0,3.79,3.79,0,0,0,5,.31,7.29,7.29,0,0,0,2.67,1.8,6.24,6.24,0,0,0,2,2.57a.92.92,0,0,0-.14.37.24.24,0,0,1-.24.19h0a.67.67,0,0,0-.46.18l-.92.9h0a.65.65,0,0,0,0,.9v0L1.68,6.59a.64.64,0,0,0,.91,0l.92-.9A.63.63,0,0,0,3.71,5.22Z"/></g></g></svg>