<svg xmlns="http://www.w3.org/2000/svg" viewBox="0 0 11.2 10.46"><defs><style>.cls-1{fill:#7b858e;}</style></defs><g id="Layer_2" data-name="Layer 2"><g id="mlcan_admin" data-name="mlcan admin"><path id="repair_approved" data-name="repair approved" class="cls-1" d="M7.34,4h0l2.49-.2a.79.79,0,0,1,.62.79h0a.65.65,0,0,1-.58.7l-2.53,0c-.62-.07-.62-.45-.62-.61A.64.64,0,0,1,7.34,4Zm2.13,6.48Zm1.17-4.9-3.36.15h0a.55.55,0,0,0-.51.6.21.21,0,0,0,0,.08.54.54,0,0,0,.56.52l3.36.14h0a.82.82,0,0,0,.53-.53A.79.79,0,0,0,10.64,5.56ZM9.47,9,7.34,9H7.25a.55.55,0,0,0-.53.58v.11a.61.61,0,0,0,.67.53l2.08.21a.77.77,0,0,0,0-1.5Zm.8-1.67-3,.1H7.23A.58.58,0,0,0,6.72,8v.11a.56.56,0,0,0,.6.5l2.95.15h0A.69.69,0,0,0,10.83,8C10.83,7.61,10.58,7.29,10.27,7.29ZM2.9,4.64c.08-.17.31-.62.79-1.45C3.21,4,3,4.47,2.9,4.64ZM6.47,8.75a.36.36,0,0,0,0-.32,1.51,1.51,0,0,1,0-1.18.38.38,0,0,0,0-.33,1.44,1.44,0,0,1,0-1.15.43.43,0,0,0,0-.35,1.37,1.37,0,0,1-.12-.6,1.47,1.47,0,0,1,.19-.73.37.37,0,0,0,0-.31.24.24,0,0,1,0-.08.49.49,0,0,1,0-.27,5.57,5.57,0,0,1,.39-1.26Q7,1.9,7.12,1.6A1.21,1.21,0,0,0,7,.48,1.22,1.22,0,0,0,6,0a.36.36,0,0,0-.33.21c-.07.14-.36.56-.66,1-.42.61-.94,1.38-1.29,2h0C3.21,4,3,4.47,2.9,4.64l0,.05a.33.33,0,0,1-.14.12h0a.37.37,0,0,0,.13-.12l0-.05a.44.44,0,0,1-.16.17.53.53,0,0,1-.12,0H2a2,2,0,0,0-2,2H0v.9a2,2,0,0,0,2,2H3.11a.46.46,0,0,1,.23.06A5.16,5.16,0,0,0,6,10.45h.48a.18.18,0,0,0,.18-.19.21.21,0,0,0,0-.11A1.46,1.46,0,0,1,6.47,8.75Z"/></g></g></svg>