<svg xmlns="http://www.w3.org/2000/svg" viewBox="0 0 14.16 18.03"><defs><style>.cls-1{fill:#7b858e;}</style></defs><g id="Layer_2" data-name="Layer 2"><g id="mlcan_admin" data-name="mlcan admin"><path id="report_placeholder" data-name="report placeholder" class="cls-1" d="M11.59,0h-9A2.57,2.57,0,0,0,0,2.58V15.45A2.58,2.58,0,0,0,2.58,18h9a2.58,2.58,0,0,0,2.57-2.58V2.58A2.57,2.57,0,0,0,11.59,0ZM7.08,10.94H3.86a.64.64,0,0,1-.64-.64.64.64,0,0,1,.64-.64H7.08a.64.64,0,1,1,0,1.28ZM10.3,7.73H3.86a.65.65,0,0,1,0-1.29H10.3a.65.65,0,0,1,0,1.29Zm0-3.22H3.86a.65.65,0,0,1,0-1.29H10.3a.65.65,0,0,1,0,1.29Z"/></g></g></svg>