<svg xmlns="http://www.w3.org/2000/svg" width="69.376" height="60" viewBox="0 0 69.376 60">
  <g id="resize_1_" data-name="resize (1)" transform="translate(0 -34.601)">
    <path id="Path_62485" data-name="Path 62485" d="M12.591,157.64H1.922a1.922,1.922,0,0,1,0-3.845H12.591a1.922,1.922,0,1,1,0,3.845Z" transform="translate(0 -103.043)" fill="#949ea9"/>
    <path id="Path_62486" data-name="Path 62486" d="M183.837,76.866l-12.775-12.43V50.674a1.881,1.881,0,0,1,3.206-1.335l27.74,27.528-27.74,27.528a1.881,1.881,0,0,1-3.206-1.335V89.3Z" transform="translate(-147.883 -12.265)" fill="#c9ced4"/>
    <g id="Group_44423" data-name="Group 44423" transform="translate(0 34.601)">
      <path id="Path_62487" data-name="Path 62487" d="M68.808,63.236,41.068,35.708a1.923,1.923,0,1,0-2.708,2.729L64.725,64.6,38.431,90.693V82.884L55.479,65.965a1.923,1.923,0,0,0,0-2.729L27.74,35.708A3.767,3.767,0,0,0,25.074,34.6a3.817,3.817,0,0,0-3.817,3.807V52.171a1.923,1.923,0,0,0,.582,1.378L33.2,64.6l-10.281,10H1.922a1.922,1.922,0,1,0,0,3.845H21.257V90.793A3.817,3.817,0,0,0,25.074,94.6a3.766,3.766,0,0,0,2.666-1.107L34.585,86.7v4.094a3.8,3.8,0,0,0,6.483,2.7l27.74-27.528a1.923,1.923,0,0,0,0-2.729ZM25.1,90.693V77.843L37.294,65.979a1.923,1.923,0,0,0,0-2.756L25.1,51.359V38.508L51.4,64.6Z" transform="translate(0 -34.601)" fill="#949ea9"/>
      <path id="Path_62488" data-name="Path 62488" d="M51,245.658H32.682a1.922,1.922,0,1,1,0-3.845H51a1.922,1.922,0,1,1,0,3.845Z" transform="translate(-26.592 -213.736)" fill="#949ea9"/>
    </g>
  </g>
</svg>
