<svg xmlns="http://www.w3.org/2000/svg" viewBox="0 0 17.51 14.24"><defs><style>.cls-1{fill:#7b858e;}</style></defs><g id="Layer_2" data-name="Layer 2"><g id="mlcan_admin" data-name="mlcan admin"><path id="upload_photo" data-name="upload photo" class="cls-1" d="M17.51,8.09a3.13,3.13,0,0,1-1.21,2.56,4.53,4.53,0,0,1-2.76.84H9.3V6.25L10.56,7.5h0a.55.55,0,0,0,.77,0,.56.56,0,0,0,0-.79L9.14,4.54a.53.53,0,0,0-.77,0L6.19,6.71a.56.56,0,0,0,0,.77l0,0A.53.53,0,0,0,7,7.5L8.21,6.25v5.24H4.65A4.94,4.94,0,0,1,1.4,10.34a4,4,0,0,1-1.4-3,3.85,3.85,0,0,1,1.33-3A5.19,5.19,0,0,1,3.7,3.21a.52.52,0,0,0,.39-.3A5.09,5.09,0,0,1,8.76,0a5.4,5.4,0,0,1,3.65,1.39,5.67,5.67,0,0,1,1.69,3,.52.52,0,0,0,.41.42,4.54,4.54,0,0,1,1.69.76A3.06,3.06,0,0,1,17.51,8.09ZM8.21,13.7a.55.55,0,0,0,1.09,0h0V11.49H8.21Z"/></g></g></svg>