<svg xmlns="http://www.w3.org/2000/svg" viewBox="0 0 18.86 12"><defs><style>.cls-1{fill:#7b858e;}</style></defs><g id="Layer_2" data-name="Layer 2"><g id="mlcan_admin" data-name="mlcan admin"><path id="user_management" data-name="user management" class="cls-1" d="M12.86,5.14a2.57,2.57,0,1,0-2.57-2.57h0a2.55,2.55,0,0,0,2.55,2.57ZM6,5.14A2.57,2.57,0,1,0,3.43,2.57,2.57,2.57,0,0,0,6,5.14ZM6,6.86c-2,0-6,1-6,3V12H12V9.86C12,7.86,8,6.86,6,6.86Zm6.86,0c-.25,0-.53,0-.83,0a3.63,3.63,0,0,1,1.69,3V12h5.14V9.86C18.86,7.86,14.85,6.86,12.86,6.86Z"/></g></g></svg>