<svg xmlns="http://www.w3.org/2000/svg" viewBox="0 0 16 15.84"><defs><style>.cls-1{fill:#7b858e;}</style></defs><g id="Layer_2" data-name="Layer 2"><g id="mlcan_admin" data-name="mlcan admin"><path id="version" class="cls-1" d="M16,7.68a.41.41,0,0,0-.36-.38l-1-.16A.2.2,0,0,1,14.48,7l-.06-.36a.23.23,0,0,1,.09-.23l.88-.49a.39.39,0,0,0,.19-.49L15.43,5A.41.41,0,0,0,15,4.72l-1,.19a.2.2,0,0,1-.22-.1c-.06-.11-.12-.22-.19-.33a.21.21,0,0,1,0-.25l.65-.75a.4.4,0,0,0,0-.53L14,2.61a.39.39,0,0,0-.52-.08l-.86.52a.23.23,0,0,1-.25,0l-.28-.24A.21.21,0,0,1,12,2.54l.35-.93a.4.4,0,0,0-.16-.5L11.8.88a.41.41,0,0,0-.52.11l-.63.79a.16.16,0,0,1-.21.06l-.38-.14a.22.22,0,0,1-.14-.2V.5A.39.39,0,0,0,9.6.08L9.16,0a.4.4,0,0,0-.45.27l-.32,1a.23.23,0,0,1-.21.14H7.8a.22.22,0,0,1-.2-.14L7.27.29A.38.38,0,0,0,6.82,0L6.38.08A.41.41,0,0,0,6.05.5l0,1a.21.21,0,0,1-.15.2l-.37.14a.22.22,0,0,1-.23-.09L4.7,1A.41.41,0,0,0,4.18.88l-.39.23a.41.41,0,0,0-.16.51L4,2.55a.2.2,0,0,1-.06.24L3.63,3a.21.21,0,0,1-.24,0l-.85-.53A.39.39,0,0,0,2,2.61L1.73,3a.4.4,0,0,0,0,.53l.65.75a.21.21,0,0,1,0,.25,2,2,0,0,0-.18.32A.22.22,0,0,1,2,4.91L1,4.72A.41.41,0,0,0,.56,5l-.15.42a.39.39,0,0,0,.19.49l.88.49a.21.21,0,0,1,.1.23v.05L1.51,7a.19.19,0,0,1-.17.17l-1,.16A.41.41,0,0,0,0,7.7v.44a.41.41,0,0,0,.35.4l1,.16a.2.2,0,0,1,.17.18c0,.12,0,.24.07.36a.21.21,0,0,1-.1.23L.6,10a.39.39,0,0,0-.19.49l.15.42a.41.41,0,0,0,.47.25l1-.19a.21.21,0,0,1,.23.11l.18.32a.23.23,0,0,1,0,.25l-.66.75a.4.4,0,0,0,0,.53l.29.35a.39.39,0,0,0,.52.07l.86-.51a.21.21,0,0,1,.25,0l.28.24A.22.22,0,0,1,4,13.3l-.36.94a.4.4,0,0,0,.17.5l.38.22a.4.4,0,0,0,.52-.11l.64-.78a.19.19,0,0,1,.2-.07l.38.14a.2.2,0,0,1,.14.2v1a.41.41,0,0,0,.33.42l.44.07a.39.39,0,0,0,.45-.27l.33-1a.19.19,0,0,1,.2-.14h.38a.19.19,0,0,1,.2.14l.33,1a.39.39,0,0,0,.38.28h.07l.44-.07a.41.41,0,0,0,.33-.42l0-1a.2.2,0,0,1,.15-.2l.34-.13h0a.18.18,0,0,1,.21.05l.65.8a.39.39,0,0,0,.51.1l.39-.22a.41.41,0,0,0,.17-.5L12,13.29a.22.22,0,0,1,.07-.24,3,3,0,0,0,.28-.24.21.21,0,0,1,.25,0l.86.52a.41.41,0,0,0,.52-.08l.29-.34a.4.4,0,0,0,0-.53l-.65-.76a.21.21,0,0,1,0-.25,2,2,0,0,0,.18-.32.22.22,0,0,1,.23-.11l1,.19a.4.4,0,0,0,.47-.25l.15-.42A.39.39,0,0,0,15.4,10l-.88-.49a.21.21,0,0,1-.1-.23v0c0-.11,0-.21.05-.32a.24.24,0,0,1,.18-.18l1-.16a.4.4,0,0,0,.36-.4ZM5.14,11.3a.62.62,0,0,1-.84.22.53.53,0,0,1-.14-.12,5.2,5.2,0,0,1,0-7,.6.6,0,0,1,.86,0,.44.44,0,0,1,.12.15L6.91,7.61a.61.61,0,0,1,0,.61ZM8,13.11A5,5,0,0,1,6.91,13a.61.61,0,0,1-.46-.73.51.51,0,0,1,.07-.17L8.29,9a.6.6,0,0,1,.52-.31h3.55a.61.61,0,0,1,.61.61.57.57,0,0,1,0,.18A5.19,5.19,0,0,1,8,13.11Zm.29-6.3L6.54,3.73a.6.6,0,0,1,.22-.83.36.36,0,0,1,.18-.07,5.17,5.17,0,0,1,6,3.5.61.61,0,0,1-.4.76.57.57,0,0,1-.18,0H8.82a.61.61,0,0,1-.53-.31Z"/></g></g></svg>